<mxfile host="65bd71144e">
    <diagram id="HIP3nbAZw_EuaXWnEj3U" name="Page-1">
        <mxGraphModel dx="798" dy="586" grid="1" gridSize="10" guides="1" tooltips="1" connect="1" arrows="1" fold="1" page="1" pageScale="1" pageWidth="850" pageHeight="1100" math="0" shadow="0">
            <root>
                <mxCell id="0"/>
                <mxCell id="1" parent="0"/>
                <mxCell id="7" value="http://ics2o.mths.ca" style="swimlane;whiteSpace=wrap;html=1;" parent="1" vertex="1">
                    <mxGeometry x="30" y="30" width="680" height="400" as="geometry"/>
                </mxCell>
                <mxCell id="8" value="&lt;font style=&quot;font-size: 18px;&quot;&gt;Guess the number program.&lt;/font&gt;" style="text;html=1;align=center;verticalAlign=middle;resizable=0;points=[];autosize=1;strokeColor=none;fillColor=none;fontSize=18;" parent="7" vertex="1">
                    <mxGeometry x="35" y="40" width="250" height="40" as="geometry"/>
                </mxCell>
                <mxCell id="9" value="Pick a number between 1 to 6." style="text;html=1;align=center;verticalAlign=middle;resizable=0;points=[];autosize=1;strokeColor=none;fillColor=none;fontSize=18;" parent="7" vertex="1">
                    <mxGeometry x="30" y="100" width="270" height="40" as="geometry"/>
                </mxCell>
                <mxCell id="12" value="&lt;font style=&quot;font-size: 18px;&quot;&gt;Number :&amp;nbsp;&lt;/font&gt;" style="text;html=1;align=center;verticalAlign=middle;resizable=0;points=[];autosize=1;strokeColor=none;fillColor=none;fontSize=18;" parent="7" vertex="1">
                    <mxGeometry x="30" y="160" width="100" height="40" as="geometry"/>
                </mxCell>
                <mxCell id="17" value="" style="rounded=1;whiteSpace=wrap;html=1;fontSize=18;" vertex="1" parent="7">
                    <mxGeometry x="130" y="165" width="110" height="30" as="geometry"/>
                </mxCell>
                <mxCell id="18" value="pictue" style="rounded=0;whiteSpace=wrap;html=1;fontSize=18;" vertex="1" parent="7">
                    <mxGeometry x="410" y="120" width="240" height="130" as="geometry"/>
                </mxCell>
                <mxCell id="20" value="Check guess" style="rounded=1;whiteSpace=wrap;html=1;fontSize=18;" vertex="1" parent="7">
                    <mxGeometry x="30" y="260" width="120" height="40" as="geometry"/>
                </mxCell>
                <mxCell id="21" value="Your guess is correct" style="text;html=1;align=center;verticalAlign=middle;resizable=0;points=[];autosize=1;strokeColor=none;fillColor=none;fontSize=18;" vertex="1" parent="7">
                    <mxGeometry x="25" y="330" width="190" height="40" as="geometry"/>
                </mxCell>
            </root>
        </mxGraphModel>
    </diagram>
</mxfile>